<svg width="24" height="24" viewBox="0 0 24 24" fill="none" xmlns="http://www.w3.org/2000/svg">
<path d="M3.24852 2.37686L21.3085 11.0143C21.4911 11.1015 21.6452 11.2385 21.7531 11.4096C21.861 11.5807 21.9183 11.7789 21.9183 11.9811C21.9183 12.1834 21.861 12.3816 21.7531 12.5527C21.6452 12.7238 21.4911 12.8608 21.3085 12.948L3.24852 21.5854C3.06338 21.6741 2.85667 21.7077 2.65296 21.6823C2.44926 21.6569 2.25716 21.5735 2.0995 21.442C1.94184 21.3105 1.82527 21.1365 1.76366 20.9407C1.70204 20.7449 1.69798 20.5355 1.75195 20.3374L3.55881 13.7134C3.58093 13.6323 3.62645 13.5594 3.68971 13.5039C3.75296 13.4484 3.83115 13.4128 3.91452 13.4014L12.666 12.2126C12.7025 12.2074 12.7371 12.1928 12.7664 12.1703C12.7957 12.1477 12.8187 12.118 12.8331 12.084L12.8485 12.0309C12.8553 11.983 12.8457 11.9343 12.8212 11.8926C12.7968 11.8509 12.759 11.8186 12.714 11.8011L12.6668 11.7883L3.92395 10.5994C3.84074 10.5879 3.76273 10.5522 3.69964 10.4968C3.63655 10.4413 3.59116 10.3685 3.5691 10.2874L1.75195 3.62572C1.69776 3.4276 1.70166 3.21808 1.76318 3.02212C1.8247 2.82615 1.94125 2.652 2.09895 2.52041C2.25665 2.38881 2.44885 2.30531 2.65266 2.27986C2.85648 2.25441 3.06331 2.28808 3.24852 2.37686V2.37686Z" fill="#E5E5E5"/>
</svg>
